<?xml version="1.0" standalone="no"?>
<!DOCTYPE svg PUBLIC "-//W3C//DTD SVG 20010904//EN"
 "http://www.w3.org/TR/2001/REC-SVG-20010904/DTD/svg10.dtd">
<svg version="1.0" xmlns="http://www.w3.org/2000/svg"
 width="800.000000pt" height="800.000000pt" viewBox="0 0 800.000000 800.000000"
 preserveAspectRatio="xMidYMid meet">
<metadata>
Created by potrace 1.11, written by Peter Selinger 2001-2013
</metadata>
<g transform="translate(0.000000,800.000000) scale(0.100000,-0.100000)"
fill="#000000" stroke="none">
<path d="M3977 7955 c-1 -1 -76 -5 -167 -8 -91 -4 -176 -9 -190 -11 -14 -3
-52 -7 -85 -11 -65 -7 -115 -14 -155 -21 -14 -2 -43 -7 -65 -10 -22 -3 -80
-15 -130 -25 -512 -112 -956 -299 -1380 -582 -442 -294 -839 -697 -1128 -1144
-176 -271 -326 -587 -437 -919 -22 -65 -40 -120 -40 -122 0 -1 -6 -26 -14 -55
-13 -44 -47 -187 -62 -262 -2 -11 -6 -31 -9 -45 -8 -37 -32 -193 -41 -265 -31
-246 -36 -669 -9 -875 3 -19 7 -55 10 -80 13 -105 21 -163 31 -215 2 -11 7
-33 10 -50 14 -78 65 -289 94 -390 7 -22 32 -98 56 -168 401 -1152 1327 -2064
2484 -2447 153 -51 362 -108 455 -124 17 -3 41 -8 55 -11 32 -7 199 -33 265
-41 28 -3 61 -7 75 -9 43 -6 310 -18 405 -19 100 0 346 12 385 18 14 3 70 10
125 16 80 9 253 40 418 75 46 10 244 69 333 99 286 98 521 207 779 363 116 70
326 212 345 233 3 3 37 30 75 60 152 119 369 324 492 465 28 33 63 74 78 90
52 60 195 253 262 355 300 452 521 1009 599 1510 3 19 7 42 9 50 2 8 7 41 10
73 4 32 8 67 10 78 2 10 7 56 11 102 3 45 8 98 10 117 6 51 5 437 0 490 -3 25
-8 86 -11 135 -4 50 -8 92 -10 95 -1 3 -6 32 -9 65 -4 33 -14 96 -21 140 -172
962 -670 1804 -1429 2413 -100 81 -416 302 -431 302 -2 0 -42 22 -87 49 -75
43 -258 135 -378 189 -177 79 -452 170 -673 221 -106 25 -129 30 -282 55 -49
8 -115 18 -145 21 -30 4 -68 8 -85 10 -16 2 -91 7 -165 10 -74 4 -159 8 -188
9 -28 2 -53 2 -55 1z"/>
</g>
</svg>
