<svg version="1.1" viewBox="0.0 0.0 800.0 800.0" fill="none" stroke="none" stroke-linecap="square" stroke-miterlimit="10" xmlns:xlink="http://www.w3.org/1999/xlink" xmlns="http://www.w3.org/2000/svg"><clipPath id="p.0"><path d="m0 0l800.0 0l0 800.0l-800.0 0l0 -800.0z" clip-rule="nonzero"/></clipPath><g clip-path="url(#p.0)"><path fill="#000000" fill-opacity="0.0" d="m0 0l800.0 0l0 800.0l-800.0 0z" fill-rule="evenodd"/><path fill="#e06666" d="m-0.0052493503 -0.14173217l800.0026 0l0 800.0026l-800.0026 0z" fill-rule="evenodd"/><path fill="#ffffff" d="m140.73875 694.4182c-97.42923 -122.04639 97.47542 -244.0928 0.046203613 -366.13922l87.688614 91.53482c97.42923 122.04642 -97.47543 244.0928 -0.046203613 366.13925z" fill-rule="evenodd"/><path fill="#ffffff" d="m454.59198 367.65204c97.752625 -115.008545 -70.263306 -250.1143 27.489319 -365.12283l-86.602905 85.25153c-97.752625 115.00854 70.263306 250.11432 -27.489319 365.12283z" fill-rule="evenodd"/><path fill="#e06666" d="m314.84918 450.6146l-12.6474 47.29782l-86.221756 -73.74762z" fill-rule="evenodd"/><path fill="#e06666" d="m313.4657 284.90378l0 0c-6.8197937 70.77658 8.920563 156.3003 43.529083 236.5112l79.244995 -40.39325l0 0c-17.8096 -42.994568 -30.615875 -87.309906 -36.721283 -127.0719z" fill-rule="evenodd"/><path fill="#ffffff" d="m415.19217 69.85237l0 0c-92.71655 76.11545 -177.66147 214.96318 -226.91385 370.9049l124.399445 22.424927c28.996979 -84.884186 66.99136 -165.07806 106.91385 -225.66069z" fill-rule="evenodd"/><path fill="#ffffff" d="m606.7119 502.19254c123.80969 -128.63 -142.89056 -237.04724 -19.08081 -365.67725l-112.38281 97.48312c-123.80975 128.62999 142.89056 237.04726 19.08081 365.67725z" fill-rule="evenodd"/></g></svg>