<svg version="1.1" viewBox="0.0 0.0 800.0 800.0" fill="none" stroke="none" stroke-linecap="square" stroke-miterlimit="10" xmlns:xlink="http://www.w3.org/1999/xlink" xmlns="http://www.w3.org/2000/svg"><clipPath id="p.0"><path d="m0 0l800.0 0l0 800.0l-800.0 0l0 -800.0z" clip-rule="nonzero"/></clipPath><g clip-path="url(#p.0)"><path fill="#000000" fill-opacity="0.0" d="m0 0l800.0 0l0 800.0l-800.0 0z" fill-rule="evenodd"/><path fill="#e06666" d="m-0.0052493503 -0.14173217l800.0026 0l0 800.0026l-800.0026 0z" fill-rule="evenodd"/><path fill="#ffffff" d="m140.73875 694.4182c-97.42923 -122.04639 97.47542 -244.0928 0.046203613 -366.13922l87.688614 91.53482c97.42923 122.04642 -97.47543 244.0928 -0.046203613 366.13925z" fill-rule="evenodd"/><path fill="#ffffff" d="m454.59198 367.65204c97.752625 -115.008545 -70.263306 -250.1143 27.489319 -365.12283l-86.602905 85.25153c-97.752625 115.00854 70.263306 250.11432 -27.489319 365.12283z" fill-rule="evenodd"/><path fill="#e06666" d="m314.84918 450.6146l-12.6474 47.29782l-86.221756 -73.74762z" fill-rule="evenodd"/><path fill="#e06666" d="m313.4657 284.90378l0 0c-6.8197937 70.77658 8.920563 156.3003 43.529083 236.5112l79.244995 -40.39325l0 0c-17.8096 -42.994568 -30.615875 -87.309906 -36.721283 -127.0719z" fill-rule="evenodd"/><path fill="#ffffff" d="m415.19217 69.85237l0 0c-92.71655 76.11545 -177.66147 214.96318 -226.91385 370.9049l124.399445 22.424927c28.996979 -84.884186 66.99136 -165.07806 106.91385 -225.66069z" fill-rule="evenodd"/><path fill="#ffffff" d="m606.7119 502.19254c123.80969 -128.63 -142.89056 -237.04724 -19.08081 -365.67725l-112.38281 97.48312c-123.80975 128.62999 142.89056 237.04726 19.08081 365.67725z" fill-rule="evenodd"/><path fill="#000000" fill-opacity="0.0" d="m259.61774 588.0317l646.57477 0l0 137.27136l-646.57477 0z" fill-rule="evenodd"/><path fill="#ffffff" d="m285.024 721.82855q-3.734375 0.671875 -8.140625 1.609375q-4.40625 0.921875 -7.734375 1.734375q1.609375 -5.734375 3.140625 -12.859375q1.53125 -7.140625 3.0625 -15.0q1.53125 -7.875 2.921875 -15.9375q1.40625 -8.078125 2.75 -15.546875q2.796875 -17.734375 5.59375 -36.65625l44.671875 -2.265625l-3.875 16.390625l-20.9375 0l-4.125 23.734375q4.125 -0.125 7.859375 -0.125q3.078125 0 6.265625 0q3.203125 0 4.9375 -0.140625q-0.40625 3.734375 -1.0 7.34375q-0.59375 3.59375 -1.125 7.1875q-1.734375 0 -4.9375 -0.0625q-3.203125 -0.0625 -6.609375 -0.1875q-3.390625 -0.140625 -7.65625 -0.28125l-6.140625 39.328125q-4.53125 0.796875 -8.921875 1.734375zm103.714935 -68.921875q0 10.921875 -2.328125 20.59375q-2.328125 9.671875 -6.203125 17.734375q-3.859375 8.0625 -9.0 14.40625q-5.125 6.328125 -10.734375 10.796875q-5.59375 4.453125 -11.328125 6.796875q-5.734375 2.328125 -10.9375 2.328125q-4.390625 0 -8.0 -1.65625q-3.59375 -1.671875 -6.265625 -4.9375q-2.65625 -3.265625 -4.1875 -8.390625q-1.53125 -5.140625 -1.53125 -12.34375q0 -7.46875 1.859375 -15.734375q1.859375 -8.265625 5.0625 -16.390625q3.203125 -8.140625 7.859375 -15.46875q4.671875 -7.34375 10.265625 -13.0q5.609375 -5.671875 12.0 -9.0q6.40625 -3.34375 13.34375 -3.34375q6.0 0 9.921875 2.46875q3.9375 2.46875 6.140625 6.40625q2.203125 3.921875 3.125 8.859375q0.9375 4.9375 0.9375 9.875zm-50.65625 41.859375q0 1.46875 0.53125 3.078125q0.53125 1.59375 1.46875 2.796875q0.9375 1.1875 2.328125 2.0625q1.40625 0.859375 3.0 0.859375q6.0 0 10.671875 -4.125q4.671875 -4.140625 7.734375 -10.140625q3.0625 -6.0 4.71875 -12.796875q1.671875 -6.796875 1.671875 -12.40625q0 -1.59375 -0.203125 -3.453125q-0.1875 -1.875 -0.796875 -3.46875q-0.59375 -1.609375 -1.859375 -2.734375q-1.265625 -1.140625 -3.40625 -1.140625q-4.265625 0 -7.859375 2.140625q-3.59375 2.125 -6.46875 5.671875q-2.859375 3.53125 -5.0 8.0q-2.125 4.453125 -3.671875 9.0625q-1.53125 4.59375 -2.203125 9.0q-0.65625 4.390625 -0.65625 7.59375zm42.262054 30.40625q3.609375 -17.734375 6.9375 -34.671875q1.203125 -7.203125 2.65625 -15.0q1.46875 -7.796875 2.734375 -15.453125q1.265625 -7.671875 2.40625 -14.8125q1.140625 -7.140625 1.796875 -13.0q7.609375 -2.40625 16.40625 -3.53125q8.796875 -1.140625 17.46875 -1.140625q5.1875 0 8.59375 1.203125q3.40625 1.203125 5.328125 3.40625q1.9375 2.203125 2.734375 5.140625q0.796875 2.921875 0.796875 6.515625q0 5.34375 -1.859375 10.484375q-1.859375 5.125 -5.0 9.734375q-3.140625 4.59375 -7.203125 8.390625q-4.0625 3.796875 -8.734375 6.203125q2.40625 5.328125 5.140625 11.65625q2.734375 6.328125 5.125 12.0625q2.671875 6.671875 5.46875 13.34375l-20.65625 7.1875q-2.671875 -8.53125 -4.8125 -15.984375q-0.921875 -3.078125 -1.859375 -6.34375q-0.9375 -3.265625 -1.734375 -6.1875q-0.796875 -2.9375 -1.328125 -5.265625q-0.53125 -2.34375 -0.671875 -3.8125l-1.734375 0.53125q-0.796875 4.265625 -1.9375 10.0q-1.125 5.734375 -2.0625 11.078125q-1.203125 6.265625 -2.40625 12.65625l-21.59375 5.609375zm31.328125 -57.875q2.546875 -0.265625 6.203125 -2.125q3.671875 -1.875 7.0 -4.46875q3.328125 -2.609375 5.734375 -5.40625q2.40625 -2.796875 2.40625 -4.921875q0 -1.46875 -0.9375 -2.328125q-0.9375 -0.875 -2.609375 -1.34375q-1.65625 -0.46875 -3.65625 -0.59375q-2.0 -0.140625 -4.140625 -0.140625q-1.453125 0 -3.0 0.0625q-1.53125 0.0625 -2.734375 0.0625l-4.265625 21.203125zm90.13422 53.46875q-4.125 0 -8.734375 0.265625q-4.59375 0.265625 -9.265625 0.796875q-4.671875 0.53125 -9.140625 1.40625q-4.453125 0.859375 -8.0625 2.0625q0.8125 -6.0 1.875 -13.328125q1.0625 -7.34375 2.453125 -15.203125q1.40625 -7.859375 2.8125 -15.859375q1.40625 -8.0 2.859375 -15.34375q3.34375 -17.46875 7.078125 -35.59375l23.328125 -3.0625q-3.59375 15.46875 -6.9375 30.125q-1.46875 6.265625 -2.9375 13.0q-1.453125 6.734375 -2.796875 13.140625q-1.328125 6.390625 -2.40625 12.390625q-1.0625 6.0 -1.71875 10.671875q3.328125 -0.265625 7.125 -0.328125q3.796875 -0.078125 6.734375 -0.078125q0.140625 2.53125 0.40625 5.0q0.265625 2.46875 0.59375 4.46875q0.34375 2.0 0.53125 3.53125q0.203125 1.53125 0.34375 2.0625q-1.078125 0 -2.078125 -0.0625q-1.0 -0.0625 -2.0625 -0.0625zm4.530731 4.40625l17.46878 -94.796875l42.140625 -3.609375q-0.9375 2.9375 -1.609375 6.0q-0.671875 2.53125 -1.265625 5.265625q-0.59375 2.734375 -1.0 4.875q-1.328125 0.125 -3.796875 0.203125q-2.46875 0.0625 -5.265625 0.125q-2.796875 0.0625 -5.671875 0.0625q-2.859375 0 -5.0 0l-4.65625 23.875q4.125 -0.265625 7.71875 -0.40625q2.9375 -0.125 6.0 -0.125q3.078125 0 4.546875 -0.140625q-0.546875 3.734375 -1.015625 7.34375q-0.453125 3.59375 -1.125 7.328125q-1.328125 0.125 -4.328125 0.203125q-3.0 0.0625 -6.078125 0.1875q-3.453125 0.140625 -7.59375 0.265625l-4.53125 24.53125l19.46875 -3.0625l-1.34375 15.203125l-43.06253 6.671875zm103.464935 -33.078125q0 7.46875 -2.875 13.546875q-2.859375 6.0625 -7.734375 10.46875q-4.859375 4.390625 -11.453125 6.796875q-6.59375 2.390625 -14.203125 2.390625q-5.328125 0 -10.671875 -2.859375q-5.328125 -2.875 -10.265625 -9.140625l9.875 -19.328125q0.9375 1.734375 2.796875 3.53125q1.875 1.796875 4.203125 3.140625q2.328125 1.328125 4.65625 2.203125q2.34375 0.859375 4.203125 0.859375q1.609375 0 3.34375 -0.53125q1.734375 -0.546875 3.1875 -1.609375q1.46875 -1.0625 2.328125 -2.453125q0.875 -1.40625 0.875 -3.28125q0 -3.203125 -2.0625 -5.921875q-2.0625 -2.734375 -5.140625 -5.203125q-3.0625 -2.46875 -6.671875 -5.0q-3.59375 -2.53125 -6.59375 -5.328125q-3.0 -2.8125 -5.140625 -6.265625q-2.125 -3.46875 -2.125 -7.75q0 -6.921875 4.125 -12.921875q4.140625 -6.0 10.34375 -10.328125q6.203125 -4.34375 13.53125 -6.875q7.34375 -2.53125 13.875 -2.53125q3.59375 0 6.796875 0.875q3.203125 0.859375 5.53125 2.796875q2.328125 1.921875 3.734375 4.859375q1.40625 2.9375 1.40625 7.328125q0 1.875 -0.34375 3.75q-0.328125 1.859375 -0.59375 3.984375l-19.328125 5.609375q0.265625 -1.078125 0.453125 -2.140625q0.203125 -1.0625 0.203125 -2.125q0 -4.0 -1.40625 -5.796875q-1.390625 -1.8125 -3.65625 -1.8125q-1.0625 0 -2.609375 0.8125q-1.53125 0.796875 -3.0625 2.0625q-1.53125 1.265625 -2.59375 3.0q-1.0625 1.734375 -1.0625 3.734375q0 3.1875 1.796875 5.328125q1.796875 2.125 4.453125 4.0q2.671875 1.859375 5.796875 3.796875q3.140625 1.9375 5.8125 5.0q2.671875 3.0625 4.46875 7.671875q1.796875 4.59375 1.796875 11.65625zm57.331116 0q0 7.46875 -2.875 13.546875q-2.859375 6.0625 -7.734375 10.46875q-4.859375 4.390625 -11.453125 6.796875q-6.59375 2.390625 -14.203125 2.390625q-5.328125 0 -10.671875 -2.859375q-5.328125 -2.875 -10.265625 -9.140625l9.875 -19.328125q0.9375 1.734375 2.796875 3.53125q1.875 1.796875 4.203125 3.140625q2.328125 1.328125 4.65625 2.203125q2.34375 0.859375 4.203125 0.859375q1.609375 0 3.34375 -0.53125q1.734375 -0.546875 3.1875 -1.609375q1.46875 -1.0625 2.328125 -2.453125q0.875 -1.40625 0.875 -3.28125q0 -3.203125 -2.0625 -5.921875q-2.0625 -2.734375 -5.140625 -5.203125q-3.0625 -2.46875 -6.671875 -5.0q-3.59375 -2.53125 -6.59375 -5.328125q-3.0 -2.8125 -5.140625 -6.265625q-2.125 -3.46875 -2.125 -7.75q0 -6.921875 4.125 -12.921875q4.140625 -6.0 10.34375 -10.328125q6.203125 -4.34375 13.53125 -6.875q7.34375 -2.53125 13.875 -2.53125q3.59375 0 6.796875 0.875q3.203125 0.859375 5.53125 2.796875q2.328125 1.921875 3.734375 4.859375q1.40625 2.9375 1.40625 7.328125q0 1.875 -0.34375 3.75q-0.328125 1.859375 -0.59375 3.984375l-19.328125 5.609375q0.265625 -1.078125 0.453125 -2.140625q0.203125 -1.0625 0.203125 -2.125q0 -4.0 -1.40625 -5.796875q-1.390625 -1.8125 -3.65625 -1.8125q-1.0625 0 -2.609375 0.8125q-1.53125 0.796875 -3.0625 2.0625q-1.53125 1.265625 -2.59375 3.0q-1.0625 1.734375 -1.0625 3.734375q0 3.1875 1.796875 5.328125q1.796875 2.125 4.453125 4.0q2.671875 1.859375 5.796875 3.796875q3.140625 1.9375 5.8125 5.0q2.671875 3.0625 4.46875 7.671875q1.796875 4.59375 1.796875 11.65625z" fill-rule="nonzero"/></g></svg>